<svg xmlns="http://www.w3.org/2000/svg"  viewBox="0 0 64 64" width="500px" height="500px"><linearGradient id="ULXnI1YknuCdXSllQTbEFa" x1="32" x2="32" y1="60.491" y2="6.685" gradientTransform="matrix(1 0 0 -1 0 66)" gradientUnits="userSpaceOnUse"><stop offset="0" stop-color="#1a6dff"/><stop offset="1" stop-color="#c822ff"/></linearGradient><path fill="url(#ULXnI1YknuCdXSllQTbEFa)" d="M32,58C17.663,58,6,46.337,6,32S17.663,6,32,6s26,11.663,26,26S46.337,58,32,58z M32,8	C18.767,8,8,18.767,8,32s10.767,24,24,24s24-10.767,24-24S45.233,8,32,8z"/><linearGradient id="ULXnI1YknuCdXSllQTbEFb" x1="32" x2="32" y1="47" y2="21" gradientTransform="matrix(1 0 0 -1 0 66)" gradientUnits="userSpaceOnUse"><stop offset="0" stop-color="#c822ff"/><stop offset="1" stop-color="#1a6dff"/></linearGradient><path fill="url(#ULXnI1YknuCdXSllQTbEFb)" d="M32,45c-2.206,0-4-1.794-4-4V23c0-0.552-0.448-1-1-1s-1,0.448-1,1v11c0,2.206-1.794,4-4,4h-8	v-3h8c0.552,0,1-0.448,1-1V23c0-2.206,1.794-4,4-4s4,1.794,4,4v18c0,0.552,0.448,1,1,1c0.552,0,1-0.448,1-1V29c0-2.206,1.794-4,4-4	s4,1.794,4,4v5c0,0.552,0.448,1,1,1h8v3h-8c-2.206,0-4-1.794-4-4v-5c0-0.552-0.448-1-1-1s-1,0.448-1,1v12C36,43.206,34.206,45,32,45	z"/></svg>